<svg id="Warstwa_1" data-name="Warstwa 1" xmlns="http://www.w3.org/2000/svg" viewBox="0 0 170 170"><defs><style>.cls-1{fill:#bd004f;}</style></defs><title>PortalRD_icons_HP_170x170px</title><path d="M138.61,68.74A15.13,15.13,0,1,0,123.48,53.6,15.13,15.13,0,0,0,138.61,68.74Zm0-28.27a13.12,13.12,0,0,1,8.5,23.13,8.56,8.56,0,0,0-5.16-7,1,1,0,1,0-.78,1.84h0a6.57,6.57,0,0,1,4,6.05,1,1,0,0,0,.1.41,13,13,0,0,1-13.32,0,1,1,0,0,0,.1-.41h0a6.57,6.57,0,0,1,3.94-6,1,1,0,1,0-.8-1.83,8.56,8.56,0,0,0-5.07,7,13.12,13.12,0,0,1,8.5-23.13Z"/><path d="M138.61,56.25a5.67,5.67,0,1,0-5.67-5.67A5.67,5.67,0,0,0,138.61,56.25Zm0-9.35a3.67,3.67,0,1,1-3.67,3.67A3.68,3.68,0,0,1,138.61,46.9Z"/><path d="M93.21,72.6a15.13,15.13,0,1,0,15.13,15.13A15.13,15.13,0,0,0,93.21,72.6Zm8.5,25.13a8.56,8.56,0,0,0-5.16-7,1,1,0,1,0-.78,1.84h0a6.57,6.57,0,0,1,4,6.05,1,1,0,0,0,.1.41,13,13,0,0,1-13.32,0,1,1,0,0,0,.1-.41h0a6.57,6.57,0,0,1,3.94-6,1,1,0,1,0-.8-1.83,8.56,8.56,0,0,0-5.07,7,13.13,13.13,0,1,1,17,0Z"/><path d="M93.21,79a5.67,5.67,0,1,0,5.67,5.67A5.68,5.68,0,0,0,93.21,79Zm0,9.35a3.67,3.67,0,1,1,3.67-3.67A3.68,3.68,0,0,1,93.21,88.38Z"/><path d="M138.87,106A15.13,15.13,0,1,0,154,121.15,15.13,15.13,0,0,0,138.87,106Zm8.5,25.13a8.56,8.56,0,0,0-5.16-7,1,1,0,1,0-.78,1.84h0a6.57,6.57,0,0,1,4,6.05,1,1,0,0,0,.1.41,13,13,0,0,1-13.32,0,1,1,0,0,0,.1-.41h0a6.57,6.57,0,0,1,3.94-6,1,1,0,0,0-.8-1.83,8.56,8.56,0,0,0-5.07,7,13.13,13.13,0,1,1,17,0Z"/><path d="M138.87,112.45a5.67,5.67,0,1,0,5.67,5.67A5.67,5.67,0,0,0,138.87,112.45Zm0,9.35a3.67,3.67,0,1,1,3.67-3.67A3.68,3.68,0,0,1,138.87,121.8Z"/><path class="cls-1" d="M140.52,84.5a.93.93,0,0,0,0-.11v-12a1,1,0,0,0-2,0v12s0,0,0,0a7.51,7.51,0,1,0,2,.08Zm-1.25,12.86a5.49,5.49,0,1,1,5.49-5.49A5.49,5.49,0,0,1,139.27,97.35Z"/><path class="cls-1" d="M108.35,75.69l-1,1a1,1,0,1,0,1.41,1.41l1-1a1,1,0,0,0-1.41-1.41Z"/><path class="cls-1" d="M121.32,62.72,117.06,67a4,4,0,0,0-2-.56,4,4,0,1,0,4,4,4,4,0,0,0-.56-2l4.27-4.27a1,1,0,1,0-1.41-1.41ZM115,72.4a2,2,0,1,1,2-2A2,2,0,0,1,115,72.4Z"/><path class="cls-1" d="M115,102.35a4,4,0,1,0,2.82,1.17A4,4,0,0,0,115,102.35Zm1.41,5.4a2,2,0,1,1,0-2.82A2,2,0,0,1,116.45,107.75Z"/><path d="M34.91,81.17a1,1,0,0,0,1-1h0V43.41a3,3,0,0,1,3-3H88.8a3,3,0,0,1,3,3v24a1,1,0,0,0,2,0v-24a5,5,0,0,0-5-5H38.9a5,5,0,0,0-5,5V80.17A1,1,0,0,0,34.91,81.17Z"/><path d="M92.79,107.16a1,1,0,0,0-1,1h0v23.08a3,3,0,0,1-3,3H38.9a3,3,0,0,1-3-3V92.48a1,1,0,0,0-2,0v38.76a5,5,0,0,0,5,5H88.8a5,5,0,0,0,5-5V108.16A1,1,0,0,0,92.79,107.16Z"/><path d="M86.81,119.26a1,1,0,0,0-1-1H40.89a1,1,0,0,0,0,2H85.81A1,1,0,0,0,86.81,119.26Z"/><path d="M71.83,48.4a1,1,0,0,0,0-2h-9a1,1,0,0,0,0,2Z"/><path d="M85.81,54.39H40.89a1,1,0,0,0,0,2H85.81a1,1,0,0,0,0-2Z"/><path d="M59.86,127.25a5,5,0,1,0,5-5A5,5,0,0,0,59.86,127.25Zm8,0a3,3,0,1,1-3-3A3,3,0,0,1,67.84,127.25Z"/><path d="M59.86,48.4a1,1,0,0,0,0-2h-3a1,1,0,0,0,0,2Z"/><path class="cls-1" d="M18,72.95a35.68,35.68,0,0,0-.26,28.12l.26.61a1,1,0,0,0,1.85-.77l-.26-.61a33.68,33.68,0,0,1,.25-26.54A1,1,0,0,0,18,72.95Z"/><path class="cls-1" d="M25.69,75.94a28.24,28.24,0,0,0-.21,22.26l.2.48a1,1,0,0,0,1.85-.77l-.2-.48a26.24,26.24,0,0,1,.19-20.69,1,1,0,0,0-1.83-.81Z"/></svg>