<svg xmlns="http://www.w3.org/2000/svg" width="44" height="44">
    <path fill="#EC0000" fill-rule="evenodd" d="M42.995 39.995a.971.971 0 0 1-.094-.004h-4.172v.004a8.077 8.077 0 0 0-2.395.362l-12.229 3.26a7.032 7.032 0 0 1-2.34.376 7.051 7.051 0 0 1-2.379-.434.995.995 0 0 1-.148-.067L1.239 35.494l-.03-.013-.001.002-.016-.008a2.103 2.103 0 0 1-1.068-1.217 2.108 2.108 0 0 1 .086-1.576l.253-.67a.867.867 0 0 1 .04-.093l-.001-.001a3.758 3.758 0 0 1 1.66-1.671l-.001-.001a3.745 3.745 0 0 1 2.327-.357l.008.001v-.001l11.141 1.948c-.02-.737.13-1.462.425-2.12l.007-.013-13.299-7.68c-.021-.01-.041-.022-.063-.034a1 1 0 0 1-.363-1.365l2.305-3.994-4.083-2.357-.063-.034a1 1 0 0 1-.363-1.365L7.296.475l.002.001A.996.996 0 0 1 8.656.112l21.015 12.135.046.025c.477.276.64.887.363 1.364l-2.304 3.995 4.098 2.366.047.025c.477.276.64.887.363 1.364l-.424.735c.396-.037.793-.061 1.19-.061v-.004c1.72 0 3.446.354 5.062 1.062l5.281 2.31c.375.164.598.531.599.915h.003v12.651c0 .553-.449 1.001-1 1.001zM27.854 13.5L8.527 2.338 2.366 13.011l3.279 1.894L9.5 8.225l.001.001a.997.997 0 0 1 1.359-.364l15.187 8.77 1.807-3.132zm-1.93 5.362c-.003-.002-.007-.001-.011-.003l-.008-.008-15.175-8.763-6.16 10.674 12.681 7.323c.086-.077.177-.153.269-.224.032-.025.074-.039.107-.063.295-.217.609-.414.96-.564l.012-.005 9.39-4.111a12.6 12.6 0 0 1 .82-.328l.051-.016a8.02 8.02 0 0 1 .351-.116l.01-.004.032-.01.805-1.395-4.134-2.387zm16.07 8.133l-4.679-2.047a10.635 10.635 0 0 0-4.265-.89v-.004c-1.051 0-2.104.162-3.123.476l-.204.065c-.316.104-.629.218-.937.353l-9.376 4.105-.042.019a2.793 2.793 0 0 0-.565.331c-.051.038-.098.08-.146.121a2.699 2.699 0 0 0-.35.351 2.836 2.836 0 0 0-.424.655 2.874 2.874 0 0 0-.106 2.09 1.778 1.778 0 0 0 1.94 1.191l13.122-2.861a1 1 0 0 1 .422 1.955l-13.127 2.861a3.76 3.76 0 0 1-2.612-.477 3.762 3.762 0 0 1-1.309-1.32L4.152 31.86l.001-.002a1.774 1.774 0 0 0-1.085.17l-.001-.002-.002.002c-.317.161-.585.42-.758.753l-.246.648h-.002l-.002.006a.715.715 0 0 1-.038.092.127.127 0 0 0-.004.09.117.117 0 0 0 .039.056l.006.003.015.008-.001.002 17.987 7.992.013.004a5.049 5.049 0 0 0 3.495.012l12.268-3.271.006-.002a9.98 9.98 0 0 1 2.886-.427v.003h3.265V26.995zm-24.68-2.389c-.991 0-1.89-.403-2.542-1.054a3.595 3.595 0 0 1 0-5.092 3.6 3.6 0 0 1 6.142 2.546c0 .992-.405 1.892-1.059 2.546a3.584 3.584 0 0 1-2.541 1.054zm0-5.199a1.6 1.6 0 0 0-1.135.468 1.597 1.597 0 0 0-.464 1.131 1.593 1.593 0 0 0 1.599 1.599 1.6 1.6 0 0 0 1.134-.469 1.6 1.6 0 0 0-1.134-2.729z"/>
</svg>
