<svg xmlns="http://www.w3.org/2000/svg" width="44" height="44">
    <path fill="#EC0000" fill-rule="evenodd" d="M43.337 30.273l-.142.248a6.289 6.289 0 0 1-4.819 3.108c-.017.03-.078.091-.098.12l-2.267 3.128-.01 5.052c0 1.142-.93 2.071-2.072 2.071h-3c-1.487 0-2.335-.52-2.837-1.739l-.621-1.735a1.147 1.147 0 0 0-.949-.506h-3.525v1.909A2.073 2.073 0 0 1 20.926 44h-5.801a2.078 2.078 0 0 1-1.793-1.035l-1.471-2.514a50.425 50.425 0 0 0-.976-1.597C9.307 36.335 7.101 32.769 6.309 29h-.602a2.883 2.883 0 0 1-1.312 3.126 2.941 2.941 0 0 1-1.543.441 2.89 2.89 0 0 1-2.365-1.232 2.686 2.686 0 0 1-.192-2.803 2.792 2.792 0 0 1 2.192-1.516L1.11 24.477a1 1 0 1 1 1.759-.953L4.755 27H6.04c-.013-.226-.05-.451-.05-.677 0-7.099 4.111-12.845 10.583-14.977-.966-1.199-1.569-2.701-1.569-4.357 0-3.854 3.137-6.988 6.993-6.988 3.855 0 6.991 3.134 6.991 6.988 0 1.634-.587 3.119-1.53 4.311 1.307.405 2.586.96 3.88 1.695l.447-.213c2.316-1.329 5.084-1.141 7.998.539a1.004 1.004 0 0 1 .366 1.367l-2.76 4.778 1.347 2.33a3.903 3.903 0 0 0 3.373 1.946h.22c.357 0 .687.19.865.498l.112.191c.913 1.853.912 4.068.031 5.842zM3.628 29.119L3.564 29h-.775a.8.8 0 0 0-.713.443.695.695 0 0 0 .045.736c.337.413.827.489 1.226.243.441-.271.557-.807.281-1.303zM21.997 2.001a4.995 4.995 0 0 0-4.991 4.988 4.997 4.997 0 0 0 4.991 4.99 4.995 4.995 0 0 0 4.989-4.99 4.994 4.994 0 0 0-4.989-4.988zm19.7 23.728a5.914 5.914 0 0 1-4.695-2.933l-1.635-2.83a1.005 1.005 0 0 1 0-1.001l2.527-4.373c-1.93-.888-3.647-.915-5.115-.073l-.378.214a2.074 2.074 0 0 1-2.053.001c-1.471-.837-2.913-1.421-4.406-1.786-.068-.017-.122-.057-.183-.086a6.929 6.929 0 0 1-3.762 1.117 6.93 6.93 0 0 1-3.666-1.064c-.008.002-.014.009-.023.011-6.267 1.542-10.316 6.801-10.316 13.397 0 4.143 2.762 8.552 4.59 11.469.393.629.742 1.186 1.012 1.656l1.469 2.512 5.863.039.07-4.999a1 1 0 1 1 2.001 0v1.019h3.525c1.119 0 2.163.602 2.723 1.57a.94.94 0 0 1 .075.165l.639 1.789c.142.34.19.456.97.456h3l.07-5.095c0-.363.096-.721.278-1.036a.813.813 0 0 1 .057-.087l2.298-3.172c.338-.549.914-.91 1.551-.971a4.288 4.288 0 0 0 3.28-2.118l.112-.193c.526-1.063.574-2.426.122-3.598zm-10.718-.835a2.95 2.95 0 0 1-2.949-2.946A2.952 2.952 0 0 1 30.979 19a2.951 2.951 0 0 1 2.947 2.948 2.95 2.95 0 0 1-2.947 2.946zm0-3.893a.947.947 0 1 0 .946.947.948.948 0 0 0-.946-.947zM26.996 18a.997.997 0 0 1-.444-.105c-.023-.011-2.327-1.143-4.555-1.143-2.226 0-4.517 1.131-4.54 1.142a1 1 0 1 1-.898-1.788c.11-.055 2.729-1.355 5.438-1.355 2.71 0 5.338 1.299 5.449 1.354a1 1 0 0 1-.45 1.895z"/>
</svg>
